<?xml version="1.0" encoding="iso-8859-1"?>
<!-- Generator: Adobe Illustrator 27.2.0, SVG Export Plug-In . SVG Version: 6.00 Build 0)  -->
<svg version="1.1" id="Layer_1" xmlns="http://www.w3.org/2000/svg" xmlns:xlink="http://www.w3.org/1999/xlink" x="0px" y="0px"
	 viewBox="0 0 100 100" style="enable-background:new 0 0 100 100;" xml:space="preserve">
<style type="text/css">
	.st0{fill:#FEC933;}
	.st1{fill:#B55E67;}
	.st2{fill:#6B96D6;}
	.st3{fill:#ABD451;}
	.st4{fill:#FC7884;}
	.st5{fill:#FB7369;}
	.st6{fill:#C9DCF4;}
	.st7{fill:#4A254B;}
	.st8{fill:#FFA340;}
	.st9{fill:#FFFFFF;}
	.st10{fill:#FD86AE;}
	.st11{fill:#81D4FA;}
	.st12{fill:#FEC524;}
	.st13{fill:none;}
	.st14{fill:#FDBC01;}
	.st15{fill:#430C61;}
	.st16{fill:none;stroke:#B55E67;stroke-linecap:round;stroke-linejoin:round;stroke-miterlimit:10;}
</style>
<g>
	<path class="st2" d="M78.333,30.217c-13.083,7.911-26.65,14.992-40.621,21.201c-1.375-2.634-2.749-5.268-4.124-7.902
		c13.083-7.911,26.65-14.992,40.621-21.201C75.584,24.95,76.958,27.583,78.333,30.217z"/>
	<path class="st2" d="M31.452,56.484c13.083,7.911,26.65,14.992,40.621,21.201c1.375-2.634,2.749-5.268,4.124-7.902
		c-13.083-7.911-26.65-14.992-40.621-21.201C34.201,51.216,32.827,53.85,31.452,56.484z"/>
</g>
<g>
	<circle class="st11" cx="30" cy="50" r="18"/>
</g>
<g>
	<circle class="st11" cx="76" cy="26" r="11"/>
</g>
<g>
	<circle class="st11" cx="76" cy="74" r="11"/>
</g>
<g>
	<g>
		<circle class="st9" cx="22.176" cy="50.105" r="4.471"/>
	</g>
	<g>
		<circle class="st7" cx="22.176" cy="50.105" r="1.792"/>
	</g>
	<g>
		<path class="st7" d="M30,58.366c1.732,0,3.159-1.467,3.351-3.355c0.023-0.23-0.126-0.435-0.331-0.435c-1.164,0-4.873,0-6.038,0
			c-0.206,0-0.355,0.205-0.332,0.435C26.841,56.899,28.268,58.366,30,58.366z"/>
	</g>
	<g>
		<circle class="st9" cx="37.824" cy="50.105" r="4.471"/>
	</g>
	<g>
		<circle class="st7" cx="37.824" cy="50.105" r="1.792"/>
	</g>
</g>
</svg>