<svg xmlns="http://www.w3.org/2000/svg"  viewBox="0 0 100 100" width="200px" height="200px" baseProfile="basic"><path fill="#c7ede6" d="M89.215,56.71C90.35,54.555,91,52.105,91,49.5c0-6.621-4.159-12.257-10.001-14.478 C80.999,35.015,81,35.008,81,35c0-11.598-9.402-21-21-21c-9.784,0-17.981,6.701-20.313,15.757C38.211,29.272,36.638,29,35,29 c-7.692,0-14.023,5.793-14.89,13.252C14.906,43.353,11,47.969,11,53.5C11,59.851,16.149,65,22.5,65 c0.177,0,0.352-0.012,0.526-0.022C23.022,65.153,23,65.324,23,65.5C23,76.822,32.178,86,43.5,86c6.437,0,12.175-2.972,15.934-7.614 C61.612,80.611,64.64,82,68,82c4.65,0,8.674-2.65,10.666-6.518C79.718,75.817,80.837,76,82,76c6.075,0,11-4.925,11-11 C93,61.689,91.53,58.727,89.215,56.71z"/><path fill="#fff" d="M17.5,51h-10C7.224,51,7,50.776,7,50.5S7.224,50,7.5,50h10c0.276,0,0.5,0.224,0.5,0.5 S17.777,51,17.5,51z"/><path fill="#fff" d="M20.5,51h-1c-0.276,0-0.5-0.224-0.5-0.5s0.224-0.5,0.5-0.5h1c0.276,0,0.5,0.224,0.5,0.5 S20.777,51,20.5,51z"/><path fill="#fff" d="M25.491,53H16.5c-0.276,0-0.5-0.224-0.5-0.5s0.224-0.5,0.5-0.5h8.991c0.276,0,0.5,0.224,0.5,0.5 S25.767,53,25.491,53z"/><path fill="#fff" d="M14.5,53h-1c-0.276,0-0.5-0.224-0.5-0.5s0.224-0.5,0.5-0.5h1c0.276,0,0.5,0.224,0.5,0.5 S14.777,53,14.5,53z"/><path fill="#fff" d="M11.5,53h-2C9.224,53,9,52.776,9,52.5S9.224,52,9.5,52h2c0.276,0,0.5,0.224,0.5,0.5 S11.777,53,11.5,53z"/><path fill="#fff" d="M17.5,55h-2c-0.276,0-0.5-0.224-0.5-0.5s0.224-0.5,0.5-0.5h2c0.276,0,0.5,0.224,0.5,0.5 S17.776,55,17.5,55z"/><path fill="#fff" d="M20.5,46c-0.177,0-0.823,0-1,0c-0.276,0-0.5,0.224-0.5,0.5s0.224,0.5,0.5,0.5c0.177,0,0.823,0,1,0 c0.276,0,0.5-0.224,0.5-0.5S20.776,46,20.5,46z"/><path fill="#fff" d="M20.5,48c-0.177,0-4.823,0-5,0c-0.276,0-0.5,0.224-0.5,0.5s0.224,0.5,0.5,0.5c0.177,0,4.823,0,5,0 c0.276,0,0.5-0.224,0.5-0.5S20.776,48,20.5,48z"/><path fill="#fff" d="M25.5,50c-0.177,0-2.823,0-3,0c-0.276,0-0.5,0.224-0.5,0.5s0.224,0.5,0.5,0.5c0.177,0,2.823,0,3,0 c0.276,0,0.5-0.224,0.5-0.5S25.776,50,25.5,50z"/><path fill="#fff" d="M74.5,24h-10c-0.276,0-0.5-0.224-0.5-0.5s0.224-0.5,0.5-0.5h10c0.276,0,0.5,0.224,0.5,0.5 S74.776,24,74.5,24z"/><path fill="#fff" d="M78.5,24h-2c-0.276,0-0.5-0.224-0.5-0.5s0.224-0.5,0.5-0.5h2c0.276,0,0.5,0.224,0.5,0.5 S78.776,24,78.5,24z"/><path fill="#fff" d="M83.5,26h-10c-0.276,0-0.5-0.224-0.5-0.5s0.224-0.5,0.5-0.5h10c0.276,0,0.5,0.224,0.5,0.5 S83.777,26,83.5,26z"/><path fill="#fff" d="M71.5,26h-1c-0.276,0-0.5-0.224-0.5-0.5s0.224-0.5,0.5-0.5h1c0.276,0,0.5,0.224,0.5,0.5 S71.776,26,71.5,26z"/><path fill="#fff" d="M68.47,26H66.5c-0.276,0-0.5-0.224-0.5-0.5s0.224-0.5,0.5-0.5h1.97c0.276,0,0.5,0.224,0.5,0.5 S68.746,26,68.47,26z"/><path fill="#fff" d="M77.5,22h-5c-0.276,0-0.5-0.224-0.5-0.5s0.224-0.5,0.5-0.5h5c0.276,0,0.5,0.224,0.5,0.5 S77.777,22,77.5,22z"/><path fill="#fff" d="M74.5,28h-2c-0.276,0-0.5-0.224-0.5-0.5s0.224-0.5,0.5-0.5h2c0.276,0,0.5,0.224,0.5,0.5 S74.776,28,74.5,28z"/><path fill="#fdfcef" d="M86.5,52.5c0,0,1.567,0,3.5,0s3.5-1.567,3.5-3.5c0-1.781-1.335-3.234-3.055-3.455 C90.473,45.366,90.5,45.187,90.5,45c0-1.933-1.567-3.5-3.5-3.5c-1.032,0-1.95,0.455-2.59,1.165 c-0.384-1.808-1.987-3.165-3.91-3.165c-2.209,0-4,1.791-4,4c0,0.191,0.03,0.374,0.056,0.558C76.128,43.714,75.592,43.5,75,43.5 c-1.228,0-2.245,0.887-2.455,2.055C72.366,45.527,72.187,45.5,72,45.5c-1.933,0-3.5,1.567-3.5,3.5s1.567,3.5,3.5,3.5s7.5,0,7.5,0 V53h7V52.5z"/><path fill="#472b29" d="M88.25,48C88.112,48,88,47.888,88,47.75c0-1.223,0.995-2.218,2.218-2.218 c0.034,0.009,0.737-0.001,1.244,0.136c0.133,0.036,0.212,0.173,0.176,0.306c-0.036,0.134-0.173,0.213-0.306,0.176 c-0.444-0.12-1.1-0.12-1.113-0.118c-0.948,0-1.719,0.771-1.719,1.718C88.5,47.888,88.388,48,88.25,48z"/><circle cx="81.5" cy="52.5" r=".5" fill="#472b29"/><path fill="#472b29" d="M90,53h-3.5c-0.276,0-0.5-0.224-0.5-0.5s0.224-0.5,0.5-0.5H90c1.654,0,3-1.346,3-3 c0-1.496-1.125-2.768-2.618-2.959c-0.134-0.018-0.255-0.088-0.336-0.196s-0.115-0.244-0.094-0.377C89.975,45.314,90,45.16,90,45 c0-1.654-1.346-3-3-3c-0.85,0-1.638,0.355-2.219,1c-0.125,0.139-0.321,0.198-0.5,0.148c-0.182-0.049-0.321-0.195-0.36-0.379 C83.58,41.165,82.141,40,80.5,40c-1.93,0-3.5,1.57-3.5,3.5c0,0.143,0.021,0.28,0.041,0.418c0.029,0.203-0.063,0.438-0.242,0.54 c-0.179,0.102-0.396,0.118-0.556-0.01C75.878,44.155,75.449,44,75,44c-0.966,0-1.792,0.691-1.963,1.644 c-0.048,0.267-0.296,0.446-0.569,0.405C72.314,46.025,72.16,46,72,46c-1.654,0-3,1.346-3,3s1.346,3,3,3h7.5 c0.276,0,0.5,0.224,0.5,0.5S79.776,53,79.5,53H72c-2.206,0-4-1.794-4-4s1.794-4,4-4c0.059,0,0.116,0.002,0.174,0.006 C72.588,43.82,73.711,43,75,43c0.349,0,0.689,0.061,1.011,0.18C76.176,40.847,78.126,39,80.5,39c1.831,0,3.466,1.127,4.153,2.774 C85.333,41.276,86.155,41,87,41c2.206,0,4,1.794,4,4c0,0.048-0.001,0.095-0.004,0.142C92.739,45.59,94,47.169,94,49 C94,51.206,92.206,53,90,53z"/><path fill="#472b29" d="M84.5,52c-0.159,0-0.841,0-1,0c-0.276,0-0.5,0.224-0.5,0.5s0.224,0.5,0.5,0.5c0.159,0,0.841,0,1,0 c0.276,0,0.5-0.224,0.5-0.5S84.776,52,84.5,52z"/><g><path fill="#fdfcef" d="M45.917,80.498c-6.404,0-11.594-5.191-11.594-11.594V58.188c-0.039-0.839-0.02-1.639,0.046-2.379 c0.193-2.153,0.964-4.12,2.149-5.757c-1.42-4.331-1.024-8.253-0.806-9.66c1.184-7.906,7.037-15.658,16.119-16.112 c2.098-1.793,4.841-2.85,7.817-2.774c6.401,0.159,11.461,5.477,11.303,11.879c-0.001,0.048-0.122,4.983-0.122,11.773 c0,1.197-0.182,2.352-0.52,3.442c1.773,2.753,2.508,5.654,2.635,7.984c0.195,2.451,0.099,8.142-4.024,13.145 c-2.226,2.702-6.347,6.019-13.331,6.474c-0.234,0.014-0.464,0.027-0.693,0.037C52.771,78.839,49.538,80.498,45.917,80.498z"/></g><path fill="none" stroke="#472b29" stroke-linecap="round" stroke-linejoin="round" stroke-miterlimit="10" stroke-width="1.4" d="M45.917,80.498c-6.404,0-11.594-5.191-11.594-11.594V58.188c-0.039-0.839-0.02-1.639,0.046-2.379 c0.193-2.153,0.964-4.12,2.149-5.757c-1.42-4.331-1.024-8.253-0.806-9.66c1.184-7.906,7.037-15.658,16.119-16.112 c2.098-1.793,4.841-2.85,7.817-2.774c6.401,0.159,11.461,5.477,11.303,11.879c-0.001,0.048-0.122,4.983-0.122,11.773 c0,1.197-0.182,2.352-0.52,3.442c1.773,2.753,2.508,5.654,2.635,7.984c0.195,2.451,0.099,8.142-4.024,13.145 c-2.226,2.702-6.347,6.019-13.331,6.474c-0.234,0.014-0.464,0.027-0.693,0.037C52.771,78.839,49.538,80.498,45.917,80.498z"/><g><path fill="#ef9922" d="M66.49,42c-0.005,0.995-0.008,2.052-0.008,3.158c0,1.492-0.452,2.883-1.229,4.039 c2.446,2.606,3.305,5.624,3.364,7.83c0.12,1.752,0.054,6.167-3.051,9.937c-1.681,2.041-4.826,4.547-10.257,4.9 c-0.985,0.062-1.91,0.061-2.778,0.007c-1.133,2.523-3.668,4.28-6.613,4.28c-4.002,0-7.246-3.244-7.246-7.246v-10.96 c-0.036-0.834,0.003-1.452,0.029-1.748c0.192-2.15,1.308-4.004,2.928-5.194c-2.313-4.324-1.814-8.761-1.611-9.996 c0.947-6.242,5.491-12.729,13.282-12.383c0.116,0.006,0.231,0.011,0.345,0.02c1.364-1.749,3.527-2.866,5.897-2.79 c4,0.099,7.163,3.424,7.064,7.423C66.604,33.318,66.518,36.827,66.49,42"/></g><g><path fill="none" stroke="#472b29" stroke-linecap="round" stroke-linejoin="round" stroke-miterlimit="10" d="M55.308,71.863 c-0.985,0.062-1.91,0.061-2.778,0.007c-1.133,2.523-3.668,4.28-6.613,4.28c-4.002,0-7.246-3.244-7.246-7.246v-10.96 c-0.036-0.834,0.003-1.452,0.029-1.748c0.192-2.15,1.308-4.004,2.928-5.194c-2.313-4.324-1.814-8.761-1.611-9.996 c0.947-6.242,5.491-12.729,13.282-12.383c0.116,0.006,0.231,0.011,0.345,0.02c1.364-1.749,3.527-2.866,5.897-2.79"/><path fill="none" stroke="#472b29" stroke-linecap="round" stroke-linejoin="round" stroke-miterlimit="10" d="M66.482,44.875 c0,0.094,0,0.188,0,0.282c0,1.492-0.452,2.883-1.229,4.039c2.446,2.606,3.305,5.624,3.364,7.83 c0.12,1.752,0.054,6.167-3.051,9.937c-1.412,1.713-3.854,3.755-7.815,4.574"/><path fill="none" stroke="#472b29" stroke-linecap="round" stroke-linejoin="round" stroke-miterlimit="10" d="M61.875,26.298 c2.826,1.045,4.809,3.798,4.73,6.978c-0.001,0.041-0.084,3.438-0.113,8.474"/></g><g><path fill="#fdfcef" d="M45.917,70.353c-0.8,0-1.449-0.648-1.449-1.449v-11.16c-0.03-0.593,0.001-0.981,0.006-1.03 c0.069-0.771,0.71-1.369,1.508-1.319c0.775,0.034,1.385,0.672,1.385,1.448v0.828c0.057,0.944,0.34,2.654,1.561,3.894 c1.228,1.247,3.193,1.792,5.816,1.622c1.87-0.122,3.252-0.71,4.11-1.752c1.33-1.615,1.083-3.882,1.08-3.905 c-0.013-0.099-0.016-0.201-0.007-0.301c0.002-0.106,0.036-3.368-6.465-4.485c-2.762-0.474-4.848-1.694-6.2-3.627 c-2.218-3.169-1.543-7.067-1.514-7.231c0.387-2.654,2.407-7.672,7.275-7.471c2.194,0.105,3.734,0.916,4.826,2.083 c0.032-2.136,0.063-3.411,0.064-3.436c0.02-0.798,0.701-1.435,1.485-1.412c0.8,0.02,1.433,0.685,1.412,1.486 c-0.001,0.05-0.125,5.091-0.125,12.025c0,0.771-0.604,1.408-1.374,1.448c-0.776,0.067-1.437-0.532-1.517-1.299 c-0.442-4.269-1.117-7.818-4.91-7.998c-3.465-0.215-4.245,4.836-4.277,5.048c-0.01,0.057-0.293,1.756,0.266,3.527 c0.704,2.226,2.366,3.535,5.08,4.003c8.456,1.452,8.874,6.386,8.869,7.401c0.059,0.655,0.205,3.642-1.731,5.991 c-1.387,1.683-3.459,2.625-6.159,2.801c-3.208,0.205-5.743-0.47-7.566-2.013v4.838C47.367,69.705,46.718,70.353,45.917,70.353z"/></g><g><path fill="#fdfcef" d="M30,74v0.5h3V74c0,0,4.242,0,5.5,0c2.485,0,4.5-2.015,4.5-4.5c0-2.333-1.782-4.229-4.055-4.455 C38.967,64.864,39,64.687,39,64.5c0-2.485-2.015-4.5-4.5-4.5c-1.438,0-2.703,0.686-3.527,1.736C30.833,59.1,28.671,57,26,57 c-2.761,0-5,2.239-5,5c0,0.446,0.077,0.87,0.187,1.282C20.545,62.505,19.586,62,18.5,62c-1.781,0-3.234,1.335-3.455,3.055 C14.864,65.033,14.687,65,14.5,65c-2.485,0-4.5,2.015-4.5,4.5s2.015,4.5,4.5,4.5s9.5,0,9.5,0H30z"/><path fill="#472b29" d="M26,56.5c-3.033,0-5.5,2.467-5.5,5.5c0,0.016,0,0.031,0,0.047c-0.602-0.355-1.29-0.547-2-0.547 c-1.831,0-3.411,1.261-3.858,3.005C14.595,64.502,14.548,64.5,14.5,64.5c-2.757,0-5,2.243-5,5s2.243,5,5,5H30 c0.276,0,0.5-0.224,0.5-0.5s-0.224-0.5-0.5-0.5H14.5c-2.206,0-4-1.794-4-4s1.794-4,4-4c0.117,0,0.23,0.017,0.343,0.032 l0.141,0.019c0.021,0.003,0.041,0.004,0.062,0.004c0.246,0,0.462-0.185,0.495-0.437c0.191-1.493,1.463-2.618,2.959-2.618 c0.885,0,1.723,0.401,2.301,1.1c0.098,0.118,0.241,0.182,0.386,0.182c0.078,0,0.156-0.018,0.228-0.056 c0.209-0.107,0.314-0.346,0.254-0.573C21.554,62.718,21.5,62.352,21.5,62c0-2.481,2.019-4.5,4.5-4.5 c2.381,0,4.347,1.872,4.474,4.263c0.011,0.208,0.15,0.387,0.349,0.45c0.05,0.016,0.101,0.024,0.152,0.024 c0.15,0,0.296-0.069,0.392-0.192c0.771-0.982,1.912-1.545,3.133-1.545c2.206,0,4,1.794,4,4c0,0.117-0.017,0.23-0.032,0.343 l-0.019,0.141c-0.016,0.134,0.022,0.268,0.106,0.373s0.207,0.172,0.34,0.185c2.056,0.205,3.605,1.907,3.605,3.958 c0,2.206-1.794,4-4,4H33c-0.276,0-0.5,0.224-0.5,0.5s0.224,0.5,0.5,0.5h5.5c2.757,0,5-2.243,5-5c0-2.397-1.689-4.413-4.003-4.877 c0.002-0.041,0.003-0.082,0.003-0.123c0-2.757-2.243-5-5-5c-1.176,0-2.293,0.416-3.183,1.164C30.719,58.26,28.555,56.5,26,56.5 L26,56.5z"/><path fill="#472b29" d="M24.5,63.5c-1.403,0-2.609,0.999-2.913,2.341c-0.367-0.222-0.786-0.341-1.212-0.341 c-1.202,0-2.198,0.897-2.353,2.068c-0.203-0.046-0.396-0.068-0.585-0.068c-1.529,0-2.811,1.2-2.918,2.732 c-0.009,0.138,0.095,0.258,0.232,0.268c0.006,0,0.012,0,0.018,0c0.13,0,0.24-0.101,0.249-0.232C15.107,68.997,16.169,68,17.437,68 c0.229,0,0.47,0.042,0.738,0.127c0.022,0.007,0.045,0.01,0.067,0.01c0.055,0,0.11-0.02,0.156-0.054 c0.064-0.046,0.102-0.128,0.102-0.208c0-1.034,0.841-1.875,1.875-1.875c0.447,0,0.885,0.168,1.231,0.473 c0.047,0.041,0.106,0.063,0.165,0.063c0.032,0,0.063-0.006,0.093-0.019c0.088-0.035,0.148-0.117,0.155-0.212 C22.123,65.012,23.212,64,24.5,64c0.208,0,0.425,0.034,0.682,0.107c0.023,0.007,0.047,0.01,0.07,0.01 c0.109,0,0.207-0.073,0.239-0.182c0.038-0.133-0.039-0.271-0.172-0.309C25.017,63.54,24.756,63.5,24.5,63.5L24.5,63.5z"/><path fill="#472b29" d="M38.383,65c-1.326,0-2.508,0.897-2.874,2.182c-0.038,0.133,0.039,0.271,0.172,0.309 c0.024,0.006,0.047,0.009,0.069,0.009c0.109,0,0.209-0.072,0.24-0.182c0.305-1.07,1.289-1.818,2.393-1.818 c0.117,0,0.23,0.014,0.342,0.029c0.012,0.002,0.023,0.003,0.035,0.003c0.121,0,0.229-0.092,0.246-0.217 c0.019-0.137-0.077-0.263-0.214-0.281C38.658,65.016,38.522,65,38.383,65L38.383,65z"/></g></svg>